<svg width="427" height="433" viewBox="0 0 427 433" fill="none" xmlns="http://www.w3.org/2000/svg">
<g id="logo">
<g id="Vector 1">
<path d="M345.5 388.5C228 427.5 290.297 247.7 168.282 208.81L68.937 244.474C191.667 185.36 173.394 59.8766 261 33C343.611 13.813 43.8721 246.237 197.767 198.383L168.282 208.81C276.421 243.278 324 320.5 345.5 388.5Z" fill="#ffffff"/>
<path d="M168.282 208.81C290.297 247.7 228 427.5 345.5 388.5C324 320.5 276.421 243.278 168.282 208.81ZM168.282 208.81L40.5819 254.653M168.282 208.81L293.602 164.494M68.3253 244.768C191.728 185.776 173.249 59.9212 261 33C345.092 13.469 33 254.653 206.488 195.536" stroke="#ffffff" stroke-width="17" stroke-linecap="round" stroke-linejoin="round"/>
</g>
<g id="Vector 2">
<path d="M267.311 174.399L167.251 210.95L137.398 221.694C238.905 191.598 -99.7178 447.745 88 398.5C109.464 352.077 143.604 234.718 267.311 174.399Z" fill="#ffffff"/>
<path d="M295.874 163.965L167.251 210.95L41.0216 256.379M267.929 174.098C143.717 234.328 109.5 352 88 398.5C-104.5 449 256.5 178.348 128.767 224.561" stroke="#ffffff" stroke-width="17" stroke-linecap="round" stroke-linejoin="round"/>
</g>
</g>
</svg>
