<?xml version="1.0" encoding="UTF-8"?>
<svg xmlns="http://www.w3.org/2000/svg" xmlns:xlink="http://www.w3.org/1999/xlink" width="32px" height="32px" viewBox="0 0 32 32" version="1.1">
<g id="surface1">
<path style=" stroke:none;fill-rule:nonzero;fill:rgb(100%,100%,100%);fill-opacity:1;" d="M 25.890625 28.710938 C 17.085938 31.59375 21.753906 18.304688 12.609375 15.433594 L 5.167969 18.066406 C 14.363281 13.699219 12.996094 4.425781 19.558594 2.4375 C 25.75 1.019531 3.289062 18.199219 14.820312 14.660156 L 12.609375 15.433594 C 20.714844 17.980469 24.28125 23.6875 25.890625 28.710938 Z M 25.890625 28.710938 "/>
<path style="fill:none;stroke-width:17;stroke-linecap:round;stroke-linejoin:round;stroke:rgb(100%,100%,100%);stroke-opacity:1;stroke-miterlimit:4;" d="M 168.256348 208.835815 C 290.278687 247.685303 227.990479 427.50293 345.478027 388.494873 C 324.00293 320.521484 276.413696 243.298218 168.256348 208.835815 Z M 168.256348 208.835815 L 40.604614 254.662354 M 168.256348 208.835815 L 293.614624 164.489258 M 68.334595 244.778198 C 191.712158 185.790405 173.260254 59.939209 260.984985 32.982422 C 345.113159 13.478394 32.994507 254.662354 206.463257 195.515991 " transform="matrix(0.0749415,0,0,0.073903,0,0)"/>
<path style=" stroke:none;fill-rule:nonzero;fill:rgb(100%,100%,100%);fill-opacity:1;" d="M 20.03125 12.886719 L 12.535156 15.589844 L 10.296875 16.382812 C 17.902344 14.160156 -7.472656 33.089844 6.59375 29.449219 C 8.203125 26.019531 10.761719 17.347656 20.03125 12.886719 Z M 20.03125 12.886719 "/>
<path style="fill:none;stroke-width:17;stroke-linecap:round;stroke-linejoin:round;stroke:rgb(100%,100%,100%);stroke-opacity:1;stroke-miterlimit:4;" d="M 295.855957 163.960693 L 167.265991 210.950073 L 41.021606 256.35376 M 267.91748 174.109131 C 143.705933 234.312622 109.512573 352.023926 87.985352 398.484741 C -104.508667 449.015503 256.502319 178.337646 128.746338 224.587036 " transform="matrix(0.0749415,0,0,0.073903,0,0)"/>
</g>
</svg>
